<mxfile host="app.diagrams.net" agent="Mozilla/5.0 (Windows NT 10.0; Win64; x64; rv:132.0) Gecko/20100101 Firefox/132.0" version="24.9.1">
  <diagram name="Page-1" id="gI8evOimamVynCtMT4Qy">
    <mxGraphModel dx="2801" dy="1049" grid="1" gridSize="10" guides="1" tooltips="1" connect="1" arrows="1" fold="1" page="1" pageScale="1" pageWidth="850" pageHeight="1100" math="0" shadow="0">
      <root>
        <mxCell id="0" />
        <mxCell id="1" parent="0" />
        <mxCell id="iZyAnFixZvS7v7MJcJc4-69" value="" style="group" vertex="1" connectable="0" parent="1">
          <mxGeometry x="200" y="940" width="60" height="110" as="geometry" />
        </mxCell>
        <mxCell id="iZyAnFixZvS7v7MJcJc4-70" value="" style="rounded=0;whiteSpace=wrap;html=1;fillColor=#000000;" vertex="1" parent="iZyAnFixZvS7v7MJcJc4-69">
          <mxGeometry x="25" width="10" height="60" as="geometry" />
        </mxCell>
        <mxCell id="iZyAnFixZvS7v7MJcJc4-71" value="&lt;font color=&quot;#3399ff&quot;&gt;frekvence generování&lt;/font&gt;&lt;div&gt;&lt;font color=&quot;#3399ff&quot;&gt;příspěvků&lt;/font&gt;&lt;/div&gt;" style="text;html=1;align=center;verticalAlign=middle;whiteSpace=wrap;rounded=0;" vertex="1" parent="iZyAnFixZvS7v7MJcJc4-69">
          <mxGeometry y="60" width="60" height="50" as="geometry" />
        </mxCell>
        <mxCell id="iZyAnFixZvS7v7MJcJc4-72" value="" style="group" vertex="1" connectable="0" parent="1">
          <mxGeometry x="330" y="1020" width="60" height="70" as="geometry" />
        </mxCell>
        <mxCell id="iZyAnFixZvS7v7MJcJc4-73" value="" style="ellipse;whiteSpace=wrap;html=1;aspect=fixed;" vertex="1" parent="iZyAnFixZvS7v7MJcJc4-72">
          <mxGeometry x="10" width="40" height="40" as="geometry" />
        </mxCell>
        <mxCell id="iZyAnFixZvS7v7MJcJc4-74" value="&lt;div&gt;Zásobník příspěvků&lt;/div&gt;" style="text;html=1;align=center;verticalAlign=middle;whiteSpace=wrap;rounded=0;" vertex="1" parent="iZyAnFixZvS7v7MJcJc4-72">
          <mxGeometry y="40" width="60" height="30" as="geometry" />
        </mxCell>
        <mxCell id="iZyAnFixZvS7v7MJcJc4-75" style="rounded=0;orthogonalLoop=1;jettySize=auto;html=1;" edge="1" parent="1" source="iZyAnFixZvS7v7MJcJc4-70" target="iZyAnFixZvS7v7MJcJc4-73">
          <mxGeometry relative="1" as="geometry" />
        </mxCell>
        <mxCell id="iZyAnFixZvS7v7MJcJc4-76" value="" style="group" vertex="1" connectable="0" parent="1">
          <mxGeometry x="550" y="820" width="60" height="70" as="geometry" />
        </mxCell>
        <mxCell id="iZyAnFixZvS7v7MJcJc4-77" value="" style="ellipse;whiteSpace=wrap;html=1;aspect=fixed;" vertex="1" parent="iZyAnFixZvS7v7MJcJc4-76">
          <mxGeometry x="10" width="40" height="40" as="geometry" />
        </mxCell>
        <mxCell id="iZyAnFixZvS7v7MJcJc4-78" value="uživatel" style="text;html=1;align=center;verticalAlign=middle;whiteSpace=wrap;rounded=0;" vertex="1" parent="iZyAnFixZvS7v7MJcJc4-76">
          <mxGeometry y="40" width="60" height="30" as="geometry" />
        </mxCell>
        <mxCell id="iZyAnFixZvS7v7MJcJc4-79" value="" style="group" vertex="1" connectable="0" parent="1">
          <mxGeometry x="440" y="1010" width="60" height="90" as="geometry" />
        </mxCell>
        <mxCell id="iZyAnFixZvS7v7MJcJc4-80" value="" style="rounded=0;whiteSpace=wrap;html=1;fillColor=#000000;" vertex="1" parent="iZyAnFixZvS7v7MJcJc4-79">
          <mxGeometry x="25" width="10" height="60" as="geometry" />
        </mxCell>
        <mxCell id="iZyAnFixZvS7v7MJcJc4-81" style="edgeStyle=orthogonalEdgeStyle;rounded=0;orthogonalLoop=1;jettySize=auto;html=1;entryX=0;entryY=0.5;entryDx=0;entryDy=0;" edge="1" parent="1" source="iZyAnFixZvS7v7MJcJc4-73" target="iZyAnFixZvS7v7MJcJc4-80">
          <mxGeometry relative="1" as="geometry" />
        </mxCell>
        <mxCell id="iZyAnFixZvS7v7MJcJc4-82" style="edgeStyle=orthogonalEdgeStyle;rounded=0;orthogonalLoop=1;jettySize=auto;html=1;entryX=0;entryY=0.25;entryDx=0;entryDy=0;" edge="1" parent="1" source="iZyAnFixZvS7v7MJcJc4-77" target="iZyAnFixZvS7v7MJcJc4-80">
          <mxGeometry relative="1" as="geometry" />
        </mxCell>
        <mxCell id="iZyAnFixZvS7v7MJcJc4-83" value="" style="group" vertex="1" connectable="0" parent="1">
          <mxGeometry x="735" y="1020" width="60" height="70" as="geometry" />
        </mxCell>
        <mxCell id="iZyAnFixZvS7v7MJcJc4-84" value="" style="ellipse;whiteSpace=wrap;html=1;aspect=fixed;" vertex="1" parent="iZyAnFixZvS7v7MJcJc4-83">
          <mxGeometry x="10" width="40" height="40" as="geometry" />
        </mxCell>
        <mxCell id="iZyAnFixZvS7v7MJcJc4-85" value="začátek příspěvku" style="text;html=1;align=center;verticalAlign=middle;whiteSpace=wrap;rounded=0;" vertex="1" parent="iZyAnFixZvS7v7MJcJc4-83">
          <mxGeometry y="40" width="60" height="30" as="geometry" />
        </mxCell>
        <mxCell id="iZyAnFixZvS7v7MJcJc4-86" value="" style="group" vertex="1" connectable="0" parent="1">
          <mxGeometry x="830" y="930" width="60" height="90" as="geometry" />
        </mxCell>
        <mxCell id="iZyAnFixZvS7v7MJcJc4-87" value="" style="rounded=0;whiteSpace=wrap;html=1;fillColor=#000000;" vertex="1" parent="iZyAnFixZvS7v7MJcJc4-86">
          <mxGeometry x="25" width="10" height="60" as="geometry" />
        </mxCell>
        <mxCell id="iZyAnFixZvS7v7MJcJc4-88" value="&lt;font color=&quot;#3399ff&quot;&gt;Doba příspěvku&lt;/font&gt;" style="text;html=1;align=center;verticalAlign=middle;whiteSpace=wrap;rounded=0;" vertex="1" parent="iZyAnFixZvS7v7MJcJc4-86">
          <mxGeometry y="60" width="60" height="30" as="geometry" />
        </mxCell>
        <mxCell id="iZyAnFixZvS7v7MJcJc4-89" style="rounded=0;orthogonalLoop=1;jettySize=auto;html=1;" edge="1" parent="1" source="iZyAnFixZvS7v7MJcJc4-84" target="iZyAnFixZvS7v7MJcJc4-87">
          <mxGeometry relative="1" as="geometry" />
        </mxCell>
        <mxCell id="iZyAnFixZvS7v7MJcJc4-90" value="" style="group" vertex="1" connectable="0" parent="1">
          <mxGeometry x="930" y="940" width="60" height="70" as="geometry" />
        </mxCell>
        <mxCell id="iZyAnFixZvS7v7MJcJc4-91" value="" style="ellipse;whiteSpace=wrap;html=1;aspect=fixed;" vertex="1" parent="iZyAnFixZvS7v7MJcJc4-90">
          <mxGeometry x="10" width="40" height="40" as="geometry" />
        </mxCell>
        <mxCell id="iZyAnFixZvS7v7MJcJc4-92" value="Konec příspěvku" style="text;html=1;align=center;verticalAlign=middle;whiteSpace=wrap;rounded=0;" vertex="1" parent="iZyAnFixZvS7v7MJcJc4-90">
          <mxGeometry y="40" width="60" height="30" as="geometry" />
        </mxCell>
        <mxCell id="iZyAnFixZvS7v7MJcJc4-93" style="edgeStyle=orthogonalEdgeStyle;rounded=0;orthogonalLoop=1;jettySize=auto;html=1;" edge="1" parent="1" source="iZyAnFixZvS7v7MJcJc4-87" target="iZyAnFixZvS7v7MJcJc4-91">
          <mxGeometry relative="1" as="geometry" />
        </mxCell>
        <mxCell id="iZyAnFixZvS7v7MJcJc4-94" value="" style="group" vertex="1" connectable="0" parent="1">
          <mxGeometry x="1050" y="980" width="60" height="90" as="geometry" />
        </mxCell>
        <mxCell id="iZyAnFixZvS7v7MJcJc4-95" value="" style="rounded=0;whiteSpace=wrap;html=1;fillColor=#000000;" vertex="1" parent="iZyAnFixZvS7v7MJcJc4-94">
          <mxGeometry x="25" width="10" height="60" as="geometry" />
        </mxCell>
        <mxCell id="iZyAnFixZvS7v7MJcJc4-96" value="56%&lt;div&gt;zaujalo&lt;/div&gt;" style="text;html=1;align=center;verticalAlign=middle;whiteSpace=wrap;rounded=0;" vertex="1" parent="iZyAnFixZvS7v7MJcJc4-94">
          <mxGeometry y="60" width="60" height="30" as="geometry" />
        </mxCell>
        <mxCell id="iZyAnFixZvS7v7MJcJc4-97" value="" style="group" vertex="1" connectable="0" parent="1">
          <mxGeometry x="1050" y="850" width="60" height="90" as="geometry" />
        </mxCell>
        <mxCell id="iZyAnFixZvS7v7MJcJc4-98" value="" style="rounded=0;whiteSpace=wrap;html=1;fillColor=#000000;" vertex="1" parent="iZyAnFixZvS7v7MJcJc4-97">
          <mxGeometry x="25" width="10" height="60" as="geometry" />
        </mxCell>
        <mxCell id="iZyAnFixZvS7v7MJcJc4-99" value="44%&lt;div&gt;nezaujalo&lt;/div&gt;" style="text;html=1;align=center;verticalAlign=middle;whiteSpace=wrap;rounded=0;" vertex="1" parent="iZyAnFixZvS7v7MJcJc4-97">
          <mxGeometry y="60" width="60" height="30" as="geometry" />
        </mxCell>
        <mxCell id="iZyAnFixZvS7v7MJcJc4-100" style="rounded=0;orthogonalLoop=1;jettySize=auto;html=1;" edge="1" parent="1" source="iZyAnFixZvS7v7MJcJc4-91" target="iZyAnFixZvS7v7MJcJc4-95">
          <mxGeometry relative="1" as="geometry" />
        </mxCell>
        <mxCell id="iZyAnFixZvS7v7MJcJc4-101" style="rounded=0;orthogonalLoop=1;jettySize=auto;html=1;" edge="1" parent="1" source="iZyAnFixZvS7v7MJcJc4-91">
          <mxGeometry relative="1" as="geometry">
            <mxPoint x="1075" y="883.333333333333" as="targetPoint" />
          </mxGeometry>
        </mxCell>
        <mxCell id="iZyAnFixZvS7v7MJcJc4-102" value="" style="group" vertex="1" connectable="0" parent="1">
          <mxGeometry x="1250" y="860" width="60" height="70" as="geometry" />
        </mxCell>
        <mxCell id="iZyAnFixZvS7v7MJcJc4-103" value="" style="ellipse;whiteSpace=wrap;html=1;aspect=fixed;" vertex="1" parent="iZyAnFixZvS7v7MJcJc4-102">
          <mxGeometry x="10" width="40" height="40" as="geometry" />
        </mxCell>
        <mxCell id="iZyAnFixZvS7v7MJcJc4-104" value="nerelevantní přískěvky" style="text;html=1;align=center;verticalAlign=middle;whiteSpace=wrap;rounded=0;" vertex="1" parent="iZyAnFixZvS7v7MJcJc4-102">
          <mxGeometry y="40" width="60" height="30" as="geometry" />
        </mxCell>
        <mxCell id="iZyAnFixZvS7v7MJcJc4-105" style="rounded=0;orthogonalLoop=1;jettySize=auto;html=1;" edge="1" parent="1" source="iZyAnFixZvS7v7MJcJc4-98" target="iZyAnFixZvS7v7MJcJc4-103">
          <mxGeometry relative="1" as="geometry" />
        </mxCell>
        <mxCell id="iZyAnFixZvS7v7MJcJc4-106" value="" style="group" vertex="1" connectable="0" parent="1">
          <mxGeometry x="1250" y="990" width="60" height="70" as="geometry" />
        </mxCell>
        <mxCell id="iZyAnFixZvS7v7MJcJc4-107" value="" style="ellipse;whiteSpace=wrap;html=1;aspect=fixed;" vertex="1" parent="iZyAnFixZvS7v7MJcJc4-106">
          <mxGeometry x="10" width="40" height="40" as="geometry" />
        </mxCell>
        <mxCell id="iZyAnFixZvS7v7MJcJc4-108" value="&lt;div&gt;relevantní příspěvky&lt;/div&gt;" style="text;html=1;align=center;verticalAlign=middle;whiteSpace=wrap;rounded=0;" vertex="1" parent="iZyAnFixZvS7v7MJcJc4-106">
          <mxGeometry y="40" width="60" height="30" as="geometry" />
        </mxCell>
        <mxCell id="iZyAnFixZvS7v7MJcJc4-109" style="rounded=0;orthogonalLoop=1;jettySize=auto;html=1;" edge="1" parent="1" source="iZyAnFixZvS7v7MJcJc4-95" target="iZyAnFixZvS7v7MJcJc4-107">
          <mxGeometry relative="1" as="geometry" />
        </mxCell>
        <mxCell id="iZyAnFixZvS7v7MJcJc4-110" value="" style="group" vertex="1" connectable="0" parent="1">
          <mxGeometry x="830" y="1070" width="60" height="90" as="geometry" />
        </mxCell>
        <mxCell id="iZyAnFixZvS7v7MJcJc4-111" value="" style="rounded=0;whiteSpace=wrap;html=1;fillColor=#000000;" vertex="1" parent="iZyAnFixZvS7v7MJcJc4-110">
          <mxGeometry x="25" width="10" height="60" as="geometry" />
        </mxCell>
        <mxCell id="iZyAnFixZvS7v7MJcJc4-112" value="&lt;font color=&quot;#3399ff&quot;&gt;Doba&lt;/font&gt;&lt;div&gt;&lt;font color=&quot;#3399ff&quot;&gt;pozornosti&lt;/font&gt;&lt;/div&gt;" style="text;html=1;align=center;verticalAlign=middle;whiteSpace=wrap;rounded=0;" vertex="1" parent="iZyAnFixZvS7v7MJcJc4-110">
          <mxGeometry y="60" width="60" height="30" as="geometry" />
        </mxCell>
        <mxCell id="iZyAnFixZvS7v7MJcJc4-113" style="rounded=0;orthogonalLoop=1;jettySize=auto;html=1;" edge="1" parent="1" source="iZyAnFixZvS7v7MJcJc4-84" target="iZyAnFixZvS7v7MJcJc4-111">
          <mxGeometry relative="1" as="geometry" />
        </mxCell>
        <mxCell id="iZyAnFixZvS7v7MJcJc4-114" style="edgeStyle=orthogonalEdgeStyle;rounded=0;orthogonalLoop=1;jettySize=auto;html=1;" edge="1" parent="1" source="iZyAnFixZvS7v7MJcJc4-87" target="iZyAnFixZvS7v7MJcJc4-77">
          <mxGeometry relative="1" as="geometry">
            <Array as="points">
              <mxPoint x="890" y="960" />
              <mxPoint x="890" y="850" />
            </Array>
          </mxGeometry>
        </mxCell>
        <mxCell id="iZyAnFixZvS7v7MJcJc4-115" value="" style="group" vertex="1" connectable="0" parent="1">
          <mxGeometry x="1250" y="1080" width="60" height="70" as="geometry" />
        </mxCell>
        <mxCell id="iZyAnFixZvS7v7MJcJc4-116" value="" style="ellipse;whiteSpace=wrap;html=1;aspect=fixed;" vertex="1" parent="iZyAnFixZvS7v7MJcJc4-115">
          <mxGeometry x="10" width="40" height="40" as="geometry" />
        </mxCell>
        <mxCell id="iZyAnFixZvS7v7MJcJc4-117" value="&lt;div&gt;příliš dlouhé příspěvky&lt;/div&gt;" style="text;html=1;align=center;verticalAlign=middle;whiteSpace=wrap;rounded=0;" vertex="1" parent="iZyAnFixZvS7v7MJcJc4-115">
          <mxGeometry y="40" width="60" height="30" as="geometry" />
        </mxCell>
        <mxCell id="iZyAnFixZvS7v7MJcJc4-118" style="rounded=0;orthogonalLoop=1;jettySize=auto;html=1;" edge="1" parent="1" source="iZyAnFixZvS7v7MJcJc4-111" target="iZyAnFixZvS7v7MJcJc4-116">
          <mxGeometry relative="1" as="geometry" />
        </mxCell>
        <mxCell id="iZyAnFixZvS7v7MJcJc4-119" value="" style="group" vertex="1" connectable="0" parent="1">
          <mxGeometry x="315" y="220" width="60" height="70" as="geometry" />
        </mxCell>
        <mxCell id="iZyAnFixZvS7v7MJcJc4-120" value="" style="ellipse;whiteSpace=wrap;html=1;aspect=fixed;" vertex="1" parent="iZyAnFixZvS7v7MJcJc4-119">
          <mxGeometry x="10" width="40" height="40" as="geometry" />
        </mxCell>
        <mxCell id="iZyAnFixZvS7v7MJcJc4-121" value="&lt;div&gt;méně aktivity&lt;/div&gt;" style="text;html=1;align=center;verticalAlign=middle;whiteSpace=wrap;rounded=0;" vertex="1" parent="iZyAnFixZvS7v7MJcJc4-119">
          <mxGeometry y="40" width="60" height="30" as="geometry" />
        </mxCell>
        <mxCell id="iZyAnFixZvS7v7MJcJc4-122" value="" style="group" vertex="1" connectable="0" parent="1">
          <mxGeometry x="395" y="210" width="60" height="90" as="geometry" />
        </mxCell>
        <mxCell id="iZyAnFixZvS7v7MJcJc4-123" value="" style="rounded=0;whiteSpace=wrap;html=1;fillColor=#000000;" vertex="1" parent="iZyAnFixZvS7v7MJcJc4-122">
          <mxGeometry x="25" width="10" height="60" as="geometry" />
        </mxCell>
        <mxCell id="iZyAnFixZvS7v7MJcJc4-124" value="exp(3h)" style="text;html=1;align=center;verticalAlign=middle;whiteSpace=wrap;rounded=0;" vertex="1" parent="iZyAnFixZvS7v7MJcJc4-122">
          <mxGeometry y="60" width="60" height="30" as="geometry" />
        </mxCell>
        <mxCell id="iZyAnFixZvS7v7MJcJc4-125" style="edgeStyle=orthogonalEdgeStyle;rounded=0;orthogonalLoop=1;jettySize=auto;html=1;" edge="1" parent="1" source="iZyAnFixZvS7v7MJcJc4-120" target="iZyAnFixZvS7v7MJcJc4-123">
          <mxGeometry relative="1" as="geometry" />
        </mxCell>
        <mxCell id="iZyAnFixZvS7v7MJcJc4-126" value="" style="group" vertex="1" connectable="0" parent="1">
          <mxGeometry x="475" y="220" width="60" height="70" as="geometry" />
        </mxCell>
        <mxCell id="iZyAnFixZvS7v7MJcJc4-127" value="" style="ellipse;whiteSpace=wrap;html=1;aspect=fixed;" vertex="1" parent="iZyAnFixZvS7v7MJcJc4-126">
          <mxGeometry x="10" width="40" height="40" as="geometry" />
        </mxCell>
        <mxCell id="iZyAnFixZvS7v7MJcJc4-128" value="&lt;div&gt;více aktivity&lt;/div&gt;" style="text;html=1;align=center;verticalAlign=middle;whiteSpace=wrap;rounded=0;" vertex="1" parent="iZyAnFixZvS7v7MJcJc4-126">
          <mxGeometry y="40" width="60" height="30" as="geometry" />
        </mxCell>
        <mxCell id="iZyAnFixZvS7v7MJcJc4-129" style="edgeStyle=orthogonalEdgeStyle;rounded=0;orthogonalLoop=1;jettySize=auto;html=1;" edge="1" parent="1" source="iZyAnFixZvS7v7MJcJc4-123" target="iZyAnFixZvS7v7MJcJc4-127">
          <mxGeometry relative="1" as="geometry" />
        </mxCell>
        <mxCell id="iZyAnFixZvS7v7MJcJc4-130" value="" style="group" vertex="1" connectable="0" parent="1">
          <mxGeometry x="545" y="210" width="60" height="90" as="geometry" />
        </mxCell>
        <mxCell id="iZyAnFixZvS7v7MJcJc4-131" value="" style="rounded=0;whiteSpace=wrap;html=1;fillColor=#000000;" vertex="1" parent="iZyAnFixZvS7v7MJcJc4-130">
          <mxGeometry x="25" width="10" height="60" as="geometry" />
        </mxCell>
        <mxCell id="iZyAnFixZvS7v7MJcJc4-132" value="exp(3h)" style="text;html=1;align=center;verticalAlign=middle;whiteSpace=wrap;rounded=0;" vertex="1" parent="iZyAnFixZvS7v7MJcJc4-130">
          <mxGeometry y="60" width="60" height="30" as="geometry" />
        </mxCell>
        <mxCell id="iZyAnFixZvS7v7MJcJc4-133" style="edgeStyle=orthogonalEdgeStyle;rounded=0;orthogonalLoop=1;jettySize=auto;html=1;" edge="1" parent="1" source="iZyAnFixZvS7v7MJcJc4-127" target="iZyAnFixZvS7v7MJcJc4-131">
          <mxGeometry relative="1" as="geometry" />
        </mxCell>
        <mxCell id="iZyAnFixZvS7v7MJcJc4-134" value="" style="group" vertex="1" connectable="0" parent="1">
          <mxGeometry x="755" y="220" width="60" height="70" as="geometry" />
        </mxCell>
        <mxCell id="iZyAnFixZvS7v7MJcJc4-135" value="" style="ellipse;whiteSpace=wrap;html=1;aspect=fixed;" vertex="1" parent="iZyAnFixZvS7v7MJcJc4-134">
          <mxGeometry x="10" width="40" height="40" as="geometry" />
        </mxCell>
        <mxCell id="iZyAnFixZvS7v7MJcJc4-136" value="&lt;div&gt;méně aktivity&lt;/div&gt;" style="text;html=1;align=center;verticalAlign=middle;whiteSpace=wrap;rounded=0;" vertex="1" parent="iZyAnFixZvS7v7MJcJc4-134">
          <mxGeometry y="40" width="60" height="30" as="geometry" />
        </mxCell>
        <mxCell id="iZyAnFixZvS7v7MJcJc4-137" value="" style="group" vertex="1" connectable="0" parent="1">
          <mxGeometry x="825" y="210" width="60" height="90" as="geometry" />
        </mxCell>
        <mxCell id="iZyAnFixZvS7v7MJcJc4-138" value="" style="rounded=0;whiteSpace=wrap;html=1;fillColor=#000000;" vertex="1" parent="iZyAnFixZvS7v7MJcJc4-137">
          <mxGeometry x="25" width="10" height="60" as="geometry" />
        </mxCell>
        <mxCell id="iZyAnFixZvS7v7MJcJc4-139" value="exp(10h)" style="text;html=1;align=center;verticalAlign=middle;whiteSpace=wrap;rounded=0;" vertex="1" parent="iZyAnFixZvS7v7MJcJc4-137">
          <mxGeometry y="60" width="60" height="30" as="geometry" />
        </mxCell>
        <mxCell id="iZyAnFixZvS7v7MJcJc4-140" style="edgeStyle=orthogonalEdgeStyle;rounded=0;orthogonalLoop=1;jettySize=auto;html=1;" edge="1" parent="1" source="iZyAnFixZvS7v7MJcJc4-135" target="iZyAnFixZvS7v7MJcJc4-138">
          <mxGeometry relative="1" as="geometry" />
        </mxCell>
        <mxCell id="iZyAnFixZvS7v7MJcJc4-141" value="" style="group" vertex="1" connectable="0" parent="1">
          <mxGeometry x="1020" y="220" width="60" height="70" as="geometry" />
        </mxCell>
        <mxCell id="iZyAnFixZvS7v7MJcJc4-142" value="1" style="ellipse;whiteSpace=wrap;html=1;aspect=fixed;" vertex="1" parent="iZyAnFixZvS7v7MJcJc4-141">
          <mxGeometry x="10" width="40" height="40" as="geometry" />
        </mxCell>
        <mxCell id="iZyAnFixZvS7v7MJcJc4-143" value="spí" style="text;html=1;align=center;verticalAlign=middle;whiteSpace=wrap;rounded=0;" vertex="1" parent="iZyAnFixZvS7v7MJcJc4-141">
          <mxGeometry y="40" width="60" height="30" as="geometry" />
        </mxCell>
        <mxCell id="iZyAnFixZvS7v7MJcJc4-144" value="" style="group" vertex="1" connectable="0" parent="1">
          <mxGeometry x="1090" y="210" width="60" height="90" as="geometry" />
        </mxCell>
        <mxCell id="iZyAnFixZvS7v7MJcJc4-145" value="" style="rounded=0;whiteSpace=wrap;html=1;fillColor=#000000;" vertex="1" parent="iZyAnFixZvS7v7MJcJc4-144">
          <mxGeometry x="25" width="10" height="60" as="geometry" />
        </mxCell>
        <mxCell id="iZyAnFixZvS7v7MJcJc4-146" value="&lt;div&gt;exp(8h)&lt;/div&gt;" style="text;html=1;align=center;verticalAlign=middle;whiteSpace=wrap;rounded=0;" vertex="1" parent="iZyAnFixZvS7v7MJcJc4-144">
          <mxGeometry y="60" width="60" height="30" as="geometry" />
        </mxCell>
        <mxCell id="iZyAnFixZvS7v7MJcJc4-147" style="edgeStyle=orthogonalEdgeStyle;rounded=0;orthogonalLoop=1;jettySize=auto;html=1;" edge="1" parent="1" source="iZyAnFixZvS7v7MJcJc4-142" target="iZyAnFixZvS7v7MJcJc4-145">
          <mxGeometry relative="1" as="geometry" />
        </mxCell>
        <mxCell id="iZyAnFixZvS7v7MJcJc4-148" style="edgeStyle=orthogonalEdgeStyle;rounded=0;orthogonalLoop=1;jettySize=auto;html=1;" edge="1" parent="1" source="iZyAnFixZvS7v7MJcJc4-145" target="iZyAnFixZvS7v7MJcJc4-120">
          <mxGeometry relative="1" as="geometry">
            <Array as="points">
              <mxPoint x="1190" y="240" />
              <mxPoint x="1190" y="160" />
              <mxPoint x="345" y="160" />
            </Array>
          </mxGeometry>
        </mxCell>
        <mxCell id="iZyAnFixZvS7v7MJcJc4-149" value="" style="group" vertex="1" connectable="0" parent="1">
          <mxGeometry x="240" y="610" width="60" height="70" as="geometry" />
        </mxCell>
        <mxCell id="iZyAnFixZvS7v7MJcJc4-150" value="" style="ellipse;whiteSpace=wrap;html=1;aspect=fixed;" vertex="1" parent="iZyAnFixZvS7v7MJcJc4-149">
          <mxGeometry x="10" width="40" height="40" as="geometry" />
        </mxCell>
        <mxCell id="iZyAnFixZvS7v7MJcJc4-151" value="začíná prohlížet" style="text;html=1;align=center;verticalAlign=middle;whiteSpace=wrap;rounded=0;" vertex="1" parent="iZyAnFixZvS7v7MJcJc4-149">
          <mxGeometry y="40" width="60" height="30" as="geometry" />
        </mxCell>
        <mxCell id="iZyAnFixZvS7v7MJcJc4-152" value="" style="group" vertex="1" connectable="0" parent="1">
          <mxGeometry x="470" y="660" width="60" height="90" as="geometry" />
        </mxCell>
        <mxCell id="iZyAnFixZvS7v7MJcJc4-153" value="" style="rounded=0;whiteSpace=wrap;html=1;fillColor=#000000;" vertex="1" parent="iZyAnFixZvS7v7MJcJc4-152">
          <mxGeometry x="25" width="10" height="60" as="geometry" />
        </mxCell>
        <mxCell id="iZyAnFixZvS7v7MJcJc4-154" value="5-8 min" style="text;html=1;align=center;verticalAlign=middle;whiteSpace=wrap;rounded=0;" vertex="1" parent="iZyAnFixZvS7v7MJcJc4-152">
          <mxGeometry y="60" width="60" height="30" as="geometry" />
        </mxCell>
        <mxCell id="iZyAnFixZvS7v7MJcJc4-155" value="" style="group" vertex="1" connectable="0" parent="1">
          <mxGeometry x="580" y="610" width="60" height="70" as="geometry" />
        </mxCell>
        <mxCell id="iZyAnFixZvS7v7MJcJc4-156" value="" style="ellipse;whiteSpace=wrap;html=1;aspect=fixed;" vertex="1" parent="iZyAnFixZvS7v7MJcJc4-155">
          <mxGeometry x="10" width="40" height="40" as="geometry" />
        </mxCell>
        <mxCell id="iZyAnFixZvS7v7MJcJc4-157" value="chce být produktivní" style="text;html=1;align=center;verticalAlign=middle;whiteSpace=wrap;rounded=0;" vertex="1" parent="iZyAnFixZvS7v7MJcJc4-155">
          <mxGeometry y="40" width="60" height="30" as="geometry" />
        </mxCell>
        <mxCell id="iZyAnFixZvS7v7MJcJc4-158" style="rounded=0;orthogonalLoop=1;jettySize=auto;html=1;" edge="1" parent="1" source="iZyAnFixZvS7v7MJcJc4-153" target="iZyAnFixZvS7v7MJcJc4-156">
          <mxGeometry relative="1" as="geometry" />
        </mxCell>
        <mxCell id="iZyAnFixZvS7v7MJcJc4-159" style="rounded=0;orthogonalLoop=1;jettySize=auto;html=1;" edge="1" parent="1" source="iZyAnFixZvS7v7MJcJc4-156" target="iZyAnFixZvS7v7MJcJc4-162">
          <mxGeometry relative="1" as="geometry" />
        </mxCell>
        <mxCell id="iZyAnFixZvS7v7MJcJc4-160" style="rounded=0;orthogonalLoop=1;jettySize=auto;html=1;edgeStyle=orthogonalEdgeStyle;" edge="1" parent="1" source="iZyAnFixZvS7v7MJcJc4-77" target="iZyAnFixZvS7v7MJcJc4-162">
          <mxGeometry relative="1" as="geometry">
            <Array as="points">
              <mxPoint x="580" y="730" />
              <mxPoint x="650" y="730" />
              <mxPoint x="650" y="640" />
            </Array>
          </mxGeometry>
        </mxCell>
        <mxCell id="iZyAnFixZvS7v7MJcJc4-161" value="" style="group" vertex="1" connectable="0" parent="1">
          <mxGeometry x="660" y="600" width="60" height="90" as="geometry" />
        </mxCell>
        <mxCell id="iZyAnFixZvS7v7MJcJc4-162" value="" style="rounded=0;whiteSpace=wrap;html=1;fillColor=#000000;" vertex="1" parent="iZyAnFixZvS7v7MJcJc4-161">
          <mxGeometry x="25" width="10" height="60" as="geometry" />
        </mxCell>
        <mxCell id="iZyAnFixZvS7v7MJcJc4-163" value="p=1" style="text;html=1;align=center;verticalAlign=middle;whiteSpace=wrap;rounded=0;" vertex="1" parent="iZyAnFixZvS7v7MJcJc4-161">
          <mxGeometry y="60" width="60" height="30" as="geometry" />
        </mxCell>
        <mxCell id="iZyAnFixZvS7v7MJcJc4-164" value="" style="group" vertex="1" connectable="0" parent="1">
          <mxGeometry x="750" y="610" width="60" height="70" as="geometry" />
        </mxCell>
        <mxCell id="iZyAnFixZvS7v7MJcJc4-165" value="" style="ellipse;whiteSpace=wrap;html=1;aspect=fixed;" vertex="1" parent="iZyAnFixZvS7v7MJcJc4-164">
          <mxGeometry x="10" width="40" height="40" as="geometry" />
        </mxCell>
        <mxCell id="iZyAnFixZvS7v7MJcJc4-166" value="začátek produktivity" style="text;html=1;align=center;verticalAlign=middle;whiteSpace=wrap;rounded=0;" vertex="1" parent="iZyAnFixZvS7v7MJcJc4-164">
          <mxGeometry y="40" width="60" height="30" as="geometry" />
        </mxCell>
        <mxCell id="iZyAnFixZvS7v7MJcJc4-167" style="edgeStyle=orthogonalEdgeStyle;rounded=0;orthogonalLoop=1;jettySize=auto;html=1;" edge="1" parent="1" source="iZyAnFixZvS7v7MJcJc4-162" target="iZyAnFixZvS7v7MJcJc4-165">
          <mxGeometry relative="1" as="geometry" />
        </mxCell>
        <mxCell id="iZyAnFixZvS7v7MJcJc4-168" value="" style="group" vertex="1" connectable="0" parent="1">
          <mxGeometry x="850" y="660" width="60" height="90" as="geometry" />
        </mxCell>
        <mxCell id="iZyAnFixZvS7v7MJcJc4-169" value="" style="rounded=0;whiteSpace=wrap;html=1;fillColor=#000000;" vertex="1" parent="iZyAnFixZvS7v7MJcJc4-168">
          <mxGeometry x="25" width="10" height="60" as="geometry" />
        </mxCell>
        <mxCell id="iZyAnFixZvS7v7MJcJc4-170" style="rounded=0;orthogonalLoop=1;jettySize=auto;html=1;" edge="1" parent="1" source="iZyAnFixZvS7v7MJcJc4-165" target="iZyAnFixZvS7v7MJcJc4-169">
          <mxGeometry relative="1" as="geometry" />
        </mxCell>
        <mxCell id="iZyAnFixZvS7v7MJcJc4-171" value="" style="group" vertex="1" connectable="0" parent="1">
          <mxGeometry x="470" y="540" width="60" height="90" as="geometry" />
        </mxCell>
        <mxCell id="iZyAnFixZvS7v7MJcJc4-172" value="" style="rounded=0;whiteSpace=wrap;html=1;fillColor=#000000;" vertex="1" parent="iZyAnFixZvS7v7MJcJc4-171">
          <mxGeometry x="25" width="10" height="60" as="geometry" />
        </mxCell>
        <mxCell id="iZyAnFixZvS7v7MJcJc4-173" value="30-45 min" style="text;html=1;align=center;verticalAlign=middle;whiteSpace=wrap;rounded=0;" vertex="1" parent="iZyAnFixZvS7v7MJcJc4-171">
          <mxGeometry y="60" width="60" height="30" as="geometry" />
        </mxCell>
        <mxCell id="iZyAnFixZvS7v7MJcJc4-174" value="" style="group" vertex="1" connectable="0" parent="1">
          <mxGeometry x="850" y="540" width="60" height="90" as="geometry" />
        </mxCell>
        <mxCell id="iZyAnFixZvS7v7MJcJc4-175" value="" style="rounded=0;whiteSpace=wrap;html=1;fillColor=#000000;" vertex="1" parent="iZyAnFixZvS7v7MJcJc4-174">
          <mxGeometry x="25" width="10" height="60" as="geometry" />
        </mxCell>
        <mxCell id="iZyAnFixZvS7v7MJcJc4-176" value="p=1" style="text;html=1;align=center;verticalAlign=middle;whiteSpace=wrap;rounded=0;" vertex="1" parent="iZyAnFixZvS7v7MJcJc4-174">
          <mxGeometry y="60" width="60" height="30" as="geometry" />
        </mxCell>
        <mxCell id="iZyAnFixZvS7v7MJcJc4-177" style="rounded=0;orthogonalLoop=1;jettySize=auto;html=1;" edge="1" parent="1" source="iZyAnFixZvS7v7MJcJc4-172" target="iZyAnFixZvS7v7MJcJc4-156">
          <mxGeometry relative="1" as="geometry" />
        </mxCell>
        <mxCell id="iZyAnFixZvS7v7MJcJc4-178" style="rounded=0;orthogonalLoop=1;jettySize=auto;html=1;" edge="1" parent="1" source="iZyAnFixZvS7v7MJcJc4-165" target="iZyAnFixZvS7v7MJcJc4-175">
          <mxGeometry relative="1" as="geometry" />
        </mxCell>
        <mxCell id="iZyAnFixZvS7v7MJcJc4-179" value="" style="group" vertex="1" connectable="0" parent="1">
          <mxGeometry x="1160" y="610" width="60" height="70" as="geometry" />
        </mxCell>
        <mxCell id="iZyAnFixZvS7v7MJcJc4-180" value="" style="ellipse;whiteSpace=wrap;html=1;aspect=fixed;" vertex="1" parent="iZyAnFixZvS7v7MJcJc4-179">
          <mxGeometry x="10" width="40" height="40" as="geometry" />
        </mxCell>
        <mxCell id="iZyAnFixZvS7v7MJcJc4-181" value="&lt;div&gt;konec&lt;/div&gt;&lt;div&gt;produktivity&lt;/div&gt;" style="text;html=1;align=center;verticalAlign=middle;whiteSpace=wrap;rounded=0;" vertex="1" parent="iZyAnFixZvS7v7MJcJc4-179">
          <mxGeometry y="40" width="60" height="30" as="geometry" />
        </mxCell>
        <mxCell id="iZyAnFixZvS7v7MJcJc4-182" style="edgeStyle=orthogonalEdgeStyle;rounded=0;orthogonalLoop=1;jettySize=auto;html=1;" edge="1" parent="1" source="iZyAnFixZvS7v7MJcJc4-184" target="iZyAnFixZvS7v7MJcJc4-150">
          <mxGeometry relative="1" as="geometry">
            <Array as="points">
              <mxPoint x="1330" y="630" />
              <mxPoint x="1330" y="760" />
              <mxPoint x="220" y="760" />
              <mxPoint x="220" y="630" />
            </Array>
          </mxGeometry>
        </mxCell>
        <mxCell id="iZyAnFixZvS7v7MJcJc4-183" style="rounded=0;orthogonalLoop=1;jettySize=auto;html=1;edgeStyle=orthogonalEdgeStyle;" edge="1" parent="1" source="iZyAnFixZvS7v7MJcJc4-184" target="iZyAnFixZvS7v7MJcJc4-77">
          <mxGeometry relative="1" as="geometry">
            <Array as="points">
              <mxPoint x="1310" y="640" />
              <mxPoint x="1310" y="790" />
              <mxPoint x="590" y="790" />
            </Array>
          </mxGeometry>
        </mxCell>
        <mxCell id="iZyAnFixZvS7v7MJcJc4-184" value="" style="rounded=0;whiteSpace=wrap;html=1;fillColor=#000000;" vertex="1" parent="1">
          <mxGeometry x="1260" y="600" width="10" height="60" as="geometry" />
        </mxCell>
        <mxCell id="iZyAnFixZvS7v7MJcJc4-185" style="edgeStyle=orthogonalEdgeStyle;rounded=0;orthogonalLoop=1;jettySize=auto;html=1;" edge="1" parent="1" source="iZyAnFixZvS7v7MJcJc4-180" target="iZyAnFixZvS7v7MJcJc4-184">
          <mxGeometry relative="1" as="geometry" />
        </mxCell>
        <mxCell id="iZyAnFixZvS7v7MJcJc4-186" value="" style="group" vertex="1" connectable="0" parent="1">
          <mxGeometry x="320" y="460" width="60" height="70" as="geometry" />
        </mxCell>
        <mxCell id="iZyAnFixZvS7v7MJcJc4-187" value="" style="ellipse;whiteSpace=wrap;html=1;aspect=fixed;" vertex="1" parent="iZyAnFixZvS7v7MJcJc4-186">
          <mxGeometry x="10" width="40" height="40" as="geometry" />
        </mxCell>
        <mxCell id="iZyAnFixZvS7v7MJcJc4-188" value="vysoká aktivita" style="text;html=1;align=center;verticalAlign=middle;whiteSpace=wrap;rounded=0;" vertex="1" parent="iZyAnFixZvS7v7MJcJc4-186">
          <mxGeometry y="40" width="60" height="30" as="geometry" />
        </mxCell>
        <mxCell id="iZyAnFixZvS7v7MJcJc4-189" value="" style="group" vertex="1" connectable="0" parent="1">
          <mxGeometry x="850" y="460" width="60" height="70" as="geometry" />
        </mxCell>
        <mxCell id="iZyAnFixZvS7v7MJcJc4-190" value="" style="ellipse;whiteSpace=wrap;html=1;aspect=fixed;" vertex="1" parent="iZyAnFixZvS7v7MJcJc4-189">
          <mxGeometry x="10" width="40" height="40" as="geometry" />
        </mxCell>
        <mxCell id="iZyAnFixZvS7v7MJcJc4-191" value="vysoká aktivita" style="text;html=1;align=center;verticalAlign=middle;whiteSpace=wrap;rounded=0;" vertex="1" parent="iZyAnFixZvS7v7MJcJc4-189">
          <mxGeometry y="40" width="60" height="30" as="geometry" />
        </mxCell>
        <mxCell id="iZyAnFixZvS7v7MJcJc4-192" style="edgeStyle=orthogonalEdgeStyle;rounded=0;orthogonalLoop=1;jettySize=auto;html=1;" edge="1" parent="1" source="iZyAnFixZvS7v7MJcJc4-190" target="iZyAnFixZvS7v7MJcJc4-175">
          <mxGeometry relative="1" as="geometry">
            <Array as="points">
              <mxPoint x="840" y="480" />
              <mxPoint x="840" y="560" />
            </Array>
          </mxGeometry>
        </mxCell>
        <mxCell id="iZyAnFixZvS7v7MJcJc4-193" style="edgeStyle=orthogonalEdgeStyle;rounded=0;orthogonalLoop=1;jettySize=auto;html=1;" edge="1" parent="1" source="iZyAnFixZvS7v7MJcJc4-175" target="iZyAnFixZvS7v7MJcJc4-190">
          <mxGeometry relative="1" as="geometry">
            <Array as="points">
              <mxPoint x="920" y="560" />
              <mxPoint x="920" y="480" />
            </Array>
          </mxGeometry>
        </mxCell>
        <mxCell id="iZyAnFixZvS7v7MJcJc4-194" value="" style="group" vertex="1" connectable="0" parent="1">
          <mxGeometry x="390" y="550" width="60" height="70" as="geometry" />
        </mxCell>
        <mxCell id="iZyAnFixZvS7v7MJcJc4-195" value="" style="ellipse;whiteSpace=wrap;html=1;aspect=fixed;" vertex="1" parent="iZyAnFixZvS7v7MJcJc4-194">
          <mxGeometry x="10" width="40" height="40" as="geometry" />
        </mxCell>
        <mxCell id="iZyAnFixZvS7v7MJcJc4-196" value="začíná prohlížet" style="text;html=1;align=center;verticalAlign=middle;whiteSpace=wrap;rounded=0;" vertex="1" parent="iZyAnFixZvS7v7MJcJc4-194">
          <mxGeometry y="40" width="60" height="30" as="geometry" />
        </mxCell>
        <mxCell id="iZyAnFixZvS7v7MJcJc4-197" value="" style="group" vertex="1" connectable="0" parent="1">
          <mxGeometry x="390" y="670" width="60" height="70" as="geometry" />
        </mxCell>
        <mxCell id="iZyAnFixZvS7v7MJcJc4-198" value="" style="ellipse;whiteSpace=wrap;html=1;aspect=fixed;" vertex="1" parent="iZyAnFixZvS7v7MJcJc4-197">
          <mxGeometry x="10" width="40" height="40" as="geometry" />
        </mxCell>
        <mxCell id="iZyAnFixZvS7v7MJcJc4-199" value="začíná prohlížet" style="text;html=1;align=center;verticalAlign=middle;whiteSpace=wrap;rounded=0;" vertex="1" parent="iZyAnFixZvS7v7MJcJc4-197">
          <mxGeometry y="40" width="60" height="30" as="geometry" />
        </mxCell>
        <mxCell id="iZyAnFixZvS7v7MJcJc4-200" style="edgeStyle=orthogonalEdgeStyle;rounded=0;orthogonalLoop=1;jettySize=auto;html=1;" edge="1" parent="1" source="iZyAnFixZvS7v7MJcJc4-198" target="iZyAnFixZvS7v7MJcJc4-153">
          <mxGeometry relative="1" as="geometry" />
        </mxCell>
        <mxCell id="iZyAnFixZvS7v7MJcJc4-201" style="edgeStyle=orthogonalEdgeStyle;rounded=0;orthogonalLoop=1;jettySize=auto;html=1;" edge="1" parent="1" source="iZyAnFixZvS7v7MJcJc4-195" target="iZyAnFixZvS7v7MJcJc4-172">
          <mxGeometry relative="1" as="geometry" />
        </mxCell>
        <mxCell id="iZyAnFixZvS7v7MJcJc4-202" style="edgeStyle=orthogonalEdgeStyle;rounded=0;orthogonalLoop=1;jettySize=auto;html=1;" edge="1" parent="1" source="iZyAnFixZvS7v7MJcJc4-209" target="iZyAnFixZvS7v7MJcJc4-195">
          <mxGeometry relative="1" as="geometry" />
        </mxCell>
        <mxCell id="iZyAnFixZvS7v7MJcJc4-203" style="edgeStyle=orthogonalEdgeStyle;rounded=0;orthogonalLoop=1;jettySize=auto;html=1;" edge="1" parent="1" source="iZyAnFixZvS7v7MJcJc4-204" target="iZyAnFixZvS7v7MJcJc4-198">
          <mxGeometry relative="1" as="geometry" />
        </mxCell>
        <mxCell id="iZyAnFixZvS7v7MJcJc4-204" value="" style="rounded=0;whiteSpace=wrap;html=1;fillColor=#000000;" vertex="1" parent="1">
          <mxGeometry x="345" y="660" width="10" height="60" as="geometry" />
        </mxCell>
        <mxCell id="iZyAnFixZvS7v7MJcJc4-205" style="rounded=0;orthogonalLoop=1;jettySize=auto;html=1;" edge="1" parent="1" source="iZyAnFixZvS7v7MJcJc4-150" target="iZyAnFixZvS7v7MJcJc4-209">
          <mxGeometry relative="1" as="geometry" />
        </mxCell>
        <mxCell id="iZyAnFixZvS7v7MJcJc4-206" style="rounded=0;orthogonalLoop=1;jettySize=auto;html=1;" edge="1" parent="1" source="iZyAnFixZvS7v7MJcJc4-150" target="iZyAnFixZvS7v7MJcJc4-204">
          <mxGeometry relative="1" as="geometry" />
        </mxCell>
        <mxCell id="iZyAnFixZvS7v7MJcJc4-207" style="edgeStyle=orthogonalEdgeStyle;rounded=0;orthogonalLoop=1;jettySize=auto;html=1;" edge="1" parent="1" source="iZyAnFixZvS7v7MJcJc4-187" target="iZyAnFixZvS7v7MJcJc4-209">
          <mxGeometry relative="1" as="geometry">
            <Array as="points">
              <mxPoint x="310" y="480" />
              <mxPoint x="310" y="560" />
            </Array>
          </mxGeometry>
        </mxCell>
        <mxCell id="iZyAnFixZvS7v7MJcJc4-208" value="" style="group" vertex="1" connectable="0" parent="1">
          <mxGeometry x="320" y="540" width="60" height="90" as="geometry" />
        </mxCell>
        <mxCell id="iZyAnFixZvS7v7MJcJc4-209" value="" style="rounded=0;whiteSpace=wrap;html=1;fillColor=#000000;" vertex="1" parent="iZyAnFixZvS7v7MJcJc4-208">
          <mxGeometry x="25" width="10" height="60" as="geometry" />
        </mxCell>
        <mxCell id="iZyAnFixZvS7v7MJcJc4-210" value="p=1" style="text;html=1;align=center;verticalAlign=middle;whiteSpace=wrap;rounded=0;" vertex="1" parent="iZyAnFixZvS7v7MJcJc4-208">
          <mxGeometry y="60" width="60" height="30" as="geometry" />
        </mxCell>
        <mxCell id="iZyAnFixZvS7v7MJcJc4-211" style="edgeStyle=orthogonalEdgeStyle;rounded=0;orthogonalLoop=1;jettySize=auto;html=1;" edge="1" parent="1" source="iZyAnFixZvS7v7MJcJc4-209" target="iZyAnFixZvS7v7MJcJc4-187">
          <mxGeometry relative="1" as="geometry">
            <Array as="points">
              <mxPoint x="390" y="560" />
              <mxPoint x="390" y="480" />
            </Array>
          </mxGeometry>
        </mxCell>
        <mxCell id="iZyAnFixZvS7v7MJcJc4-212" value="" style="group" vertex="1" connectable="0" parent="1">
          <mxGeometry x="1030" y="540" width="60" height="90" as="geometry" />
        </mxCell>
        <mxCell id="iZyAnFixZvS7v7MJcJc4-213" value="" style="rounded=0;whiteSpace=wrap;html=1;fillColor=#000000;" vertex="1" parent="iZyAnFixZvS7v7MJcJc4-212">
          <mxGeometry x="25" width="10" height="60" as="geometry" />
        </mxCell>
        <mxCell id="iZyAnFixZvS7v7MJcJc4-214" value="10-15 min" style="text;html=1;align=center;verticalAlign=middle;whiteSpace=wrap;rounded=0;" vertex="1" parent="iZyAnFixZvS7v7MJcJc4-212">
          <mxGeometry y="60" width="60" height="30" as="geometry" />
        </mxCell>
        <mxCell id="iZyAnFixZvS7v7MJcJc4-215" value="" style="group" vertex="1" connectable="0" parent="1">
          <mxGeometry x="940" y="550" width="60" height="70" as="geometry" />
        </mxCell>
        <mxCell id="iZyAnFixZvS7v7MJcJc4-216" value="" style="ellipse;whiteSpace=wrap;html=1;aspect=fixed;" vertex="1" parent="iZyAnFixZvS7v7MJcJc4-215">
          <mxGeometry x="10" width="40" height="40" as="geometry" />
        </mxCell>
        <mxCell id="iZyAnFixZvS7v7MJcJc4-217" value="začátek produktivity" style="text;html=1;align=center;verticalAlign=middle;whiteSpace=wrap;rounded=0;" vertex="1" parent="iZyAnFixZvS7v7MJcJc4-215">
          <mxGeometry y="40" width="60" height="30" as="geometry" />
        </mxCell>
        <mxCell id="iZyAnFixZvS7v7MJcJc4-218" value="" style="group" vertex="1" connectable="0" parent="1">
          <mxGeometry x="940" y="670" width="60" height="70" as="geometry" />
        </mxCell>
        <mxCell id="iZyAnFixZvS7v7MJcJc4-219" value="" style="ellipse;whiteSpace=wrap;html=1;aspect=fixed;" vertex="1" parent="iZyAnFixZvS7v7MJcJc4-218">
          <mxGeometry x="10" width="40" height="40" as="geometry" />
        </mxCell>
        <mxCell id="iZyAnFixZvS7v7MJcJc4-220" value="začátek produktivity" style="text;html=1;align=center;verticalAlign=middle;whiteSpace=wrap;rounded=0;" vertex="1" parent="iZyAnFixZvS7v7MJcJc4-218">
          <mxGeometry y="40" width="60" height="30" as="geometry" />
        </mxCell>
        <mxCell id="iZyAnFixZvS7v7MJcJc4-221" style="edgeStyle=orthogonalEdgeStyle;rounded=0;orthogonalLoop=1;jettySize=auto;html=1;" edge="1" parent="1" source="iZyAnFixZvS7v7MJcJc4-169" target="iZyAnFixZvS7v7MJcJc4-219">
          <mxGeometry relative="1" as="geometry" />
        </mxCell>
        <mxCell id="iZyAnFixZvS7v7MJcJc4-222" style="edgeStyle=orthogonalEdgeStyle;rounded=0;orthogonalLoop=1;jettySize=auto;html=1;" edge="1" parent="1" source="iZyAnFixZvS7v7MJcJc4-175" target="iZyAnFixZvS7v7MJcJc4-216">
          <mxGeometry relative="1" as="geometry" />
        </mxCell>
        <mxCell id="iZyAnFixZvS7v7MJcJc4-223" style="edgeStyle=orthogonalEdgeStyle;rounded=0;orthogonalLoop=1;jettySize=auto;html=1;" edge="1" parent="1" source="iZyAnFixZvS7v7MJcJc4-216" target="iZyAnFixZvS7v7MJcJc4-213">
          <mxGeometry relative="1" as="geometry" />
        </mxCell>
        <mxCell id="iZyAnFixZvS7v7MJcJc4-224" value="" style="group" vertex="1" connectable="0" parent="1">
          <mxGeometry x="1030" y="660" width="60" height="90" as="geometry" />
        </mxCell>
        <mxCell id="iZyAnFixZvS7v7MJcJc4-225" value="" style="rounded=0;whiteSpace=wrap;html=1;fillColor=#000000;" vertex="1" parent="iZyAnFixZvS7v7MJcJc4-224">
          <mxGeometry x="25" width="10" height="60" as="geometry" />
        </mxCell>
        <mxCell id="iZyAnFixZvS7v7MJcJc4-226" value="30-45 min" style="text;html=1;align=center;verticalAlign=middle;whiteSpace=wrap;rounded=0;" vertex="1" parent="iZyAnFixZvS7v7MJcJc4-224">
          <mxGeometry y="60" width="60" height="30" as="geometry" />
        </mxCell>
        <mxCell id="iZyAnFixZvS7v7MJcJc4-227" style="edgeStyle=orthogonalEdgeStyle;rounded=0;orthogonalLoop=1;jettySize=auto;html=1;" edge="1" parent="1" source="iZyAnFixZvS7v7MJcJc4-219" target="iZyAnFixZvS7v7MJcJc4-225">
          <mxGeometry relative="1" as="geometry" />
        </mxCell>
        <mxCell id="iZyAnFixZvS7v7MJcJc4-228" style="rounded=0;orthogonalLoop=1;jettySize=auto;html=1;" edge="1" parent="1" source="iZyAnFixZvS7v7MJcJc4-213" target="iZyAnFixZvS7v7MJcJc4-180">
          <mxGeometry relative="1" as="geometry" />
        </mxCell>
        <mxCell id="iZyAnFixZvS7v7MJcJc4-229" style="rounded=0;orthogonalLoop=1;jettySize=auto;html=1;" edge="1" parent="1" source="iZyAnFixZvS7v7MJcJc4-225" target="iZyAnFixZvS7v7MJcJc4-180">
          <mxGeometry relative="1" as="geometry" />
        </mxCell>
        <mxCell id="iZyAnFixZvS7v7MJcJc4-230" style="edgeStyle=orthogonalEdgeStyle;rounded=0;orthogonalLoop=1;jettySize=auto;html=1;" edge="1" parent="1" source="iZyAnFixZvS7v7MJcJc4-123" target="iZyAnFixZvS7v7MJcJc4-187">
          <mxGeometry relative="1" as="geometry">
            <Array as="points">
              <mxPoint x="450" y="240" />
              <mxPoint x="450" y="470" />
            </Array>
          </mxGeometry>
        </mxCell>
        <mxCell id="iZyAnFixZvS7v7MJcJc4-231" style="edgeStyle=orthogonalEdgeStyle;rounded=0;orthogonalLoop=1;jettySize=auto;html=1;" edge="1" parent="1" source="iZyAnFixZvS7v7MJcJc4-123" target="iZyAnFixZvS7v7MJcJc4-190">
          <mxGeometry relative="1" as="geometry">
            <Array as="points">
              <mxPoint x="460" y="240" />
              <mxPoint x="460" y="470" />
            </Array>
          </mxGeometry>
        </mxCell>
        <mxCell id="iZyAnFixZvS7v7MJcJc4-232" value="" style="group" vertex="1" connectable="0" parent="1">
          <mxGeometry x="615" y="220" width="60" height="90" as="geometry" />
        </mxCell>
        <mxCell id="iZyAnFixZvS7v7MJcJc4-233" value="" style="ellipse;whiteSpace=wrap;html=1;aspect=fixed;" vertex="1" parent="iZyAnFixZvS7v7MJcJc4-232">
          <mxGeometry x="10" width="40" height="40" as="geometry" />
        </mxCell>
        <mxCell id="iZyAnFixZvS7v7MJcJc4-234" value="&lt;div&gt;konec vysoké aktivity&lt;/div&gt;" style="text;html=1;align=center;verticalAlign=middle;whiteSpace=wrap;rounded=0;" vertex="1" parent="iZyAnFixZvS7v7MJcJc4-232">
          <mxGeometry y="45" width="60" height="45" as="geometry" />
        </mxCell>
        <mxCell id="iZyAnFixZvS7v7MJcJc4-235" style="edgeStyle=orthogonalEdgeStyle;rounded=0;orthogonalLoop=1;jettySize=auto;html=1;" edge="1" parent="1" source="iZyAnFixZvS7v7MJcJc4-131" target="iZyAnFixZvS7v7MJcJc4-233">
          <mxGeometry relative="1" as="geometry" />
        </mxCell>
        <mxCell id="iZyAnFixZvS7v7MJcJc4-236" value="" style="group" vertex="1" connectable="0" parent="1">
          <mxGeometry x="685" y="210" width="60" height="90" as="geometry" />
        </mxCell>
        <mxCell id="iZyAnFixZvS7v7MJcJc4-237" value="" style="rounded=0;whiteSpace=wrap;html=1;fillColor=#000000;" vertex="1" parent="iZyAnFixZvS7v7MJcJc4-236">
          <mxGeometry x="25" width="10" height="60" as="geometry" />
        </mxCell>
        <mxCell id="iZyAnFixZvS7v7MJcJc4-238" value="p=2" style="text;html=1;align=center;verticalAlign=middle;whiteSpace=wrap;rounded=0;" vertex="1" parent="iZyAnFixZvS7v7MJcJc4-236">
          <mxGeometry y="60" width="60" height="30" as="geometry" />
        </mxCell>
        <mxCell id="iZyAnFixZvS7v7MJcJc4-239" style="edgeStyle=orthogonalEdgeStyle;rounded=0;orthogonalLoop=1;jettySize=auto;html=1;" edge="1" parent="1" source="iZyAnFixZvS7v7MJcJc4-233" target="iZyAnFixZvS7v7MJcJc4-237">
          <mxGeometry relative="1" as="geometry" />
        </mxCell>
        <mxCell id="iZyAnFixZvS7v7MJcJc4-240" style="edgeStyle=orthogonalEdgeStyle;rounded=0;orthogonalLoop=1;jettySize=auto;html=1;" edge="1" parent="1" source="iZyAnFixZvS7v7MJcJc4-237" target="iZyAnFixZvS7v7MJcJc4-135">
          <mxGeometry relative="1" as="geometry" />
        </mxCell>
        <mxCell id="iZyAnFixZvS7v7MJcJc4-241" style="edgeStyle=orthogonalEdgeStyle;rounded=0;orthogonalLoop=1;jettySize=auto;html=1;" edge="1" parent="1" source="iZyAnFixZvS7v7MJcJc4-187" target="iZyAnFixZvS7v7MJcJc4-237">
          <mxGeometry relative="1" as="geometry">
            <Array as="points">
              <mxPoint x="350" y="420" />
              <mxPoint x="690" y="420" />
              <mxPoint x="690" y="250" />
            </Array>
          </mxGeometry>
        </mxCell>
        <mxCell id="iZyAnFixZvS7v7MJcJc4-242" style="edgeStyle=orthogonalEdgeStyle;rounded=0;orthogonalLoop=1;jettySize=auto;html=1;" edge="1" parent="1" source="iZyAnFixZvS7v7MJcJc4-190" target="iZyAnFixZvS7v7MJcJc4-237">
          <mxGeometry relative="1" as="geometry">
            <Array as="points">
              <mxPoint x="880" y="420" />
              <mxPoint x="700" y="420" />
              <mxPoint x="700" y="260" />
            </Array>
          </mxGeometry>
        </mxCell>
        <mxCell id="iZyAnFixZvS7v7MJcJc4-243" value="" style="group" vertex="1" connectable="0" parent="1">
          <mxGeometry x="950" y="210" width="60" height="90" as="geometry" />
        </mxCell>
        <mxCell id="iZyAnFixZvS7v7MJcJc4-244" value="" style="rounded=0;whiteSpace=wrap;html=1;fillColor=#000000;" vertex="1" parent="iZyAnFixZvS7v7MJcJc4-243">
          <mxGeometry x="25" width="10" height="60" as="geometry" />
        </mxCell>
        <mxCell id="iZyAnFixZvS7v7MJcJc4-245" value="p=1" style="text;html=1;align=center;verticalAlign=middle;whiteSpace=wrap;rounded=0;" vertex="1" parent="iZyAnFixZvS7v7MJcJc4-243">
          <mxGeometry y="60" width="60" height="30" as="geometry" />
        </mxCell>
        <mxCell id="iZyAnFixZvS7v7MJcJc4-246" style="edgeStyle=orthogonalEdgeStyle;rounded=0;orthogonalLoop=1;jettySize=auto;html=1;" edge="1" parent="1" source="iZyAnFixZvS7v7MJcJc4-244" target="iZyAnFixZvS7v7MJcJc4-142">
          <mxGeometry relative="1" as="geometry" />
        </mxCell>
        <mxCell id="iZyAnFixZvS7v7MJcJc4-247" value="" style="group" vertex="1" connectable="0" parent="1">
          <mxGeometry x="890" y="220" width="60" height="70" as="geometry" />
        </mxCell>
        <mxCell id="iZyAnFixZvS7v7MJcJc4-248" value="" style="ellipse;whiteSpace=wrap;html=1;aspect=fixed;" vertex="1" parent="iZyAnFixZvS7v7MJcJc4-247">
          <mxGeometry x="10" width="40" height="40" as="geometry" />
        </mxCell>
        <mxCell id="iZyAnFixZvS7v7MJcJc4-249" value="jde spát" style="text;html=1;align=center;verticalAlign=middle;whiteSpace=wrap;rounded=0;" vertex="1" parent="iZyAnFixZvS7v7MJcJc4-247">
          <mxGeometry y="40" width="60" height="30" as="geometry" />
        </mxCell>
        <mxCell id="iZyAnFixZvS7v7MJcJc4-250" style="edgeStyle=orthogonalEdgeStyle;rounded=0;orthogonalLoop=1;jettySize=auto;html=1;" edge="1" parent="1" source="iZyAnFixZvS7v7MJcJc4-138" target="iZyAnFixZvS7v7MJcJc4-248">
          <mxGeometry relative="1" as="geometry" />
        </mxCell>
        <mxCell id="iZyAnFixZvS7v7MJcJc4-251" style="edgeStyle=orthogonalEdgeStyle;rounded=0;orthogonalLoop=1;jettySize=auto;html=1;" edge="1" parent="1" source="iZyAnFixZvS7v7MJcJc4-248" target="iZyAnFixZvS7v7MJcJc4-244">
          <mxGeometry relative="1" as="geometry" />
        </mxCell>
        <mxCell id="iZyAnFixZvS7v7MJcJc4-252" style="edgeStyle=orthogonalEdgeStyle;rounded=0;orthogonalLoop=1;jettySize=auto;html=1;" edge="1" parent="1" source="iZyAnFixZvS7v7MJcJc4-180" target="iZyAnFixZvS7v7MJcJc4-244">
          <mxGeometry relative="1" as="geometry">
            <Array as="points">
              <mxPoint x="1180" y="300" />
              <mxPoint x="960" y="300" />
              <mxPoint x="960" y="250" />
            </Array>
          </mxGeometry>
        </mxCell>
        <mxCell id="iZyAnFixZvS7v7MJcJc4-253" style="edgeStyle=orthogonalEdgeStyle;rounded=0;orthogonalLoop=1;jettySize=auto;html=1;" edge="1" parent="1" source="iZyAnFixZvS7v7MJcJc4-145" target="iZyAnFixZvS7v7MJcJc4-180">
          <mxGeometry relative="1" as="geometry" />
        </mxCell>
        <mxCell id="iZyAnFixZvS7v7MJcJc4-254" style="edgeStyle=orthogonalEdgeStyle;rounded=0;orthogonalLoop=1;jettySize=auto;html=1;" edge="1" parent="1" source="iZyAnFixZvS7v7MJcJc4-111" target="iZyAnFixZvS7v7MJcJc4-77">
          <mxGeometry relative="1" as="geometry">
            <Array as="points">
              <mxPoint x="900" y="1090" />
              <mxPoint x="900" y="840" />
            </Array>
          </mxGeometry>
        </mxCell>
        <mxCell id="iZyAnFixZvS7v7MJcJc4-255" value="" style="group" vertex="1" connectable="0" parent="1">
          <mxGeometry x="950" y="330" width="60" height="90" as="geometry" />
        </mxCell>
        <mxCell id="iZyAnFixZvS7v7MJcJc4-256" value="" style="rounded=0;whiteSpace=wrap;html=1;fillColor=#000000;" vertex="1" parent="iZyAnFixZvS7v7MJcJc4-255">
          <mxGeometry x="25" width="10" height="60" as="geometry" />
        </mxCell>
        <mxCell id="iZyAnFixZvS7v7MJcJc4-257" value="p=2" style="text;html=1;align=center;verticalAlign=middle;whiteSpace=wrap;rounded=0;" vertex="1" parent="iZyAnFixZvS7v7MJcJc4-255">
          <mxGeometry y="60" width="60" height="30" as="geometry" />
        </mxCell>
        <mxCell id="iZyAnFixZvS7v7MJcJc4-258" style="edgeStyle=orthogonalEdgeStyle;rounded=0;orthogonalLoop=1;jettySize=auto;html=1;" edge="1" parent="1" source="iZyAnFixZvS7v7MJcJc4-248" target="iZyAnFixZvS7v7MJcJc4-256">
          <mxGeometry relative="1" as="geometry">
            <Array as="points">
              <mxPoint x="950" y="240" />
              <mxPoint x="950" y="360" />
            </Array>
          </mxGeometry>
        </mxCell>
        <mxCell id="iZyAnFixZvS7v7MJcJc4-259" style="edgeStyle=orthogonalEdgeStyle;rounded=0;orthogonalLoop=1;jettySize=auto;html=1;" edge="1" parent="1" source="iZyAnFixZvS7v7MJcJc4-156" target="iZyAnFixZvS7v7MJcJc4-256">
          <mxGeometry relative="1" as="geometry">
            <Array as="points">
              <mxPoint x="610" y="370" />
            </Array>
          </mxGeometry>
        </mxCell>
        <mxCell id="iZyAnFixZvS7v7MJcJc4-260" style="edgeStyle=orthogonalEdgeStyle;rounded=0;orthogonalLoop=1;jettySize=auto;html=1;" edge="1" parent="1" source="iZyAnFixZvS7v7MJcJc4-256" target="iZyAnFixZvS7v7MJcJc4-142">
          <mxGeometry relative="1" as="geometry">
            <Array as="points">
              <mxPoint x="1000" y="360" />
              <mxPoint x="1000" y="250" />
            </Array>
          </mxGeometry>
        </mxCell>
        <mxCell id="iZyAnFixZvS7v7MJcJc4-261" value="" style="group" vertex="1" connectable="0" parent="1">
          <mxGeometry x="520" y="1020" width="60" height="70" as="geometry" />
        </mxCell>
        <mxCell id="iZyAnFixZvS7v7MJcJc4-262" value="" style="ellipse;whiteSpace=wrap;html=1;aspect=fixed;" vertex="1" parent="iZyAnFixZvS7v7MJcJc4-261">
          <mxGeometry x="10" width="40" height="40" as="geometry" />
        </mxCell>
        <mxCell id="iZyAnFixZvS7v7MJcJc4-263" value="&lt;div&gt;typ příspěvku&lt;br&gt;&lt;/div&gt;" style="text;html=1;align=center;verticalAlign=middle;whiteSpace=wrap;rounded=0;" vertex="1" parent="iZyAnFixZvS7v7MJcJc4-261">
          <mxGeometry y="40" width="60" height="30" as="geometry" />
        </mxCell>
        <mxCell id="iZyAnFixZvS7v7MJcJc4-264" style="edgeStyle=orthogonalEdgeStyle;rounded=0;orthogonalLoop=1;jettySize=auto;html=1;" edge="1" parent="1" source="iZyAnFixZvS7v7MJcJc4-80" target="iZyAnFixZvS7v7MJcJc4-262">
          <mxGeometry relative="1" as="geometry" />
        </mxCell>
        <mxCell id="iZyAnFixZvS7v7MJcJc4-265" style="rounded=0;orthogonalLoop=1;jettySize=auto;html=1;" edge="1" parent="1" source="iZyAnFixZvS7v7MJcJc4-278" target="iZyAnFixZvS7v7MJcJc4-84">
          <mxGeometry relative="1" as="geometry" />
        </mxCell>
        <mxCell id="iZyAnFixZvS7v7MJcJc4-266" style="rounded=0;orthogonalLoop=1;jettySize=auto;html=1;" edge="1" parent="1" source="iZyAnFixZvS7v7MJcJc4-262" target="iZyAnFixZvS7v7MJcJc4-278">
          <mxGeometry relative="1" as="geometry" />
        </mxCell>
        <mxCell id="iZyAnFixZvS7v7MJcJc4-267" value="" style="group" vertex="1" connectable="0" parent="1">
          <mxGeometry x="200" y="1070" width="60" height="110" as="geometry" />
        </mxCell>
        <mxCell id="iZyAnFixZvS7v7MJcJc4-268" value="" style="rounded=0;whiteSpace=wrap;html=1;fillColor=#000000;" vertex="1" parent="iZyAnFixZvS7v7MJcJc4-267">
          <mxGeometry x="25" width="10" height="60" as="geometry" />
        </mxCell>
        <mxCell id="iZyAnFixZvS7v7MJcJc4-269" value="&lt;font color=&quot;#3399ff&quot;&gt;frekvence generování reklamy&lt;br&gt;&lt;/font&gt;" style="text;html=1;align=center;verticalAlign=middle;whiteSpace=wrap;rounded=0;" vertex="1" parent="iZyAnFixZvS7v7MJcJc4-267">
          <mxGeometry y="60" width="60" height="50" as="geometry" />
        </mxCell>
        <mxCell id="iZyAnFixZvS7v7MJcJc4-270" style="rounded=0;orthogonalLoop=1;jettySize=auto;html=1;" edge="1" parent="1" source="iZyAnFixZvS7v7MJcJc4-268" target="iZyAnFixZvS7v7MJcJc4-73">
          <mxGeometry relative="1" as="geometry" />
        </mxCell>
        <mxCell id="iZyAnFixZvS7v7MJcJc4-271" value="" style="group" vertex="1" connectable="0" parent="1">
          <mxGeometry x="620" y="1070" width="90" height="90" as="geometry" />
        </mxCell>
        <mxCell id="iZyAnFixZvS7v7MJcJc4-272" value="" style="rounded=0;whiteSpace=wrap;html=1;fillColor=#000000;" vertex="1" parent="iZyAnFixZvS7v7MJcJc4-271">
          <mxGeometry x="25" width="10" height="60" as="geometry" />
        </mxCell>
        <mxCell id="iZyAnFixZvS7v7MJcJc4-273" value="reklama" style="text;html=1;align=center;verticalAlign=middle;whiteSpace=wrap;rounded=0;" vertex="1" parent="iZyAnFixZvS7v7MJcJc4-271">
          <mxGeometry x="-15" y="60" width="90" height="30" as="geometry" />
        </mxCell>
        <mxCell id="iZyAnFixZvS7v7MJcJc4-274" style="rounded=0;orthogonalLoop=1;jettySize=auto;html=1;" edge="1" parent="1" source="iZyAnFixZvS7v7MJcJc4-262" target="iZyAnFixZvS7v7MJcJc4-272">
          <mxGeometry relative="1" as="geometry" />
        </mxCell>
        <mxCell id="iZyAnFixZvS7v7MJcJc4-275" style="rounded=0;orthogonalLoop=1;jettySize=auto;html=1;" edge="1" parent="1" source="iZyAnFixZvS7v7MJcJc4-272" target="iZyAnFixZvS7v7MJcJc4-84">
          <mxGeometry relative="1" as="geometry" />
        </mxCell>
        <mxCell id="iZyAnFixZvS7v7MJcJc4-276" value="" style="group" vertex="1" connectable="0" parent="1">
          <mxGeometry x="605" y="940" width="130" height="90" as="geometry" />
        </mxCell>
        <mxCell id="iZyAnFixZvS7v7MJcJc4-277" value="" style="group" vertex="1" connectable="0" parent="iZyAnFixZvS7v7MJcJc4-276">
          <mxGeometry x="40" width="90" height="90" as="geometry" />
        </mxCell>
        <mxCell id="iZyAnFixZvS7v7MJcJc4-278" value="" style="rounded=0;whiteSpace=wrap;html=1;fillColor=#000000;" vertex="1" parent="iZyAnFixZvS7v7MJcJc4-277">
          <mxGeometry y="-10" width="10" height="60" as="geometry" />
        </mxCell>
        <mxCell id="iZyAnFixZvS7v7MJcJc4-279" value="obyčejný příspěvek" style="text;html=1;align=center;verticalAlign=middle;whiteSpace=wrap;rounded=0;" vertex="1" parent="iZyAnFixZvS7v7MJcJc4-276">
          <mxGeometry y="50" width="90" height="30" as="geometry" />
        </mxCell>
        <mxCell id="iZyAnFixZvS7v7MJcJc4-280" value="" style="group" vertex="1" connectable="0" parent="1">
          <mxGeometry x="710" y="1180" width="60" height="70" as="geometry" />
        </mxCell>
        <mxCell id="iZyAnFixZvS7v7MJcJc4-281" value="" style="ellipse;whiteSpace=wrap;html=1;aspect=fixed;" vertex="1" parent="iZyAnFixZvS7v7MJcJc4-280">
          <mxGeometry x="10" width="40" height="40" as="geometry" />
        </mxCell>
        <mxCell id="iZyAnFixZvS7v7MJcJc4-282" value="počet reklam" style="text;html=1;align=center;verticalAlign=middle;whiteSpace=wrap;rounded=0;" vertex="1" parent="iZyAnFixZvS7v7MJcJc4-280">
          <mxGeometry y="40" width="60" height="30" as="geometry" />
        </mxCell>
        <mxCell id="iZyAnFixZvS7v7MJcJc4-283" style="edgeStyle=orthogonalEdgeStyle;rounded=0;orthogonalLoop=1;jettySize=auto;html=1;" edge="1" parent="1" source="iZyAnFixZvS7v7MJcJc4-272" target="iZyAnFixZvS7v7MJcJc4-281">
          <mxGeometry relative="1" as="geometry">
            <Array as="points">
              <mxPoint x="690" y="1110" />
              <mxPoint x="690" y="1200" />
            </Array>
          </mxGeometry>
        </mxCell>
        <mxCell id="iZyAnFixZvS7v7MJcJc4-284" value="" style="group" vertex="1" connectable="0" parent="1">
          <mxGeometry x="970" y="1170" width="60" height="90" as="geometry" />
        </mxCell>
        <mxCell id="iZyAnFixZvS7v7MJcJc4-285" value="" style="rounded=0;whiteSpace=wrap;html=1;fillColor=#000000;" vertex="1" parent="iZyAnFixZvS7v7MJcJc4-284">
          <mxGeometry x="25" width="10" height="60" as="geometry" />
        </mxCell>
        <mxCell id="iZyAnFixZvS7v7MJcJc4-286" style="edgeStyle=orthogonalEdgeStyle;rounded=0;orthogonalLoop=1;jettySize=auto;html=1;" edge="1" parent="1" source="iZyAnFixZvS7v7MJcJc4-281" target="iZyAnFixZvS7v7MJcJc4-285">
          <mxGeometry relative="1" as="geometry" />
        </mxCell>
        <mxCell id="iZyAnFixZvS7v7MJcJc4-287" value="6" style="text;html=1;align=center;verticalAlign=middle;resizable=0;points=[];autosize=1;strokeColor=none;fillColor=none;" vertex="1" parent="1">
          <mxGeometry x="765" y="1170" width="30" height="30" as="geometry" />
        </mxCell>
        <mxCell id="iZyAnFixZvS7v7MJcJc4-288" value="" style="group" vertex="1" connectable="0" parent="1">
          <mxGeometry x="1250" y="1180" width="90" height="70" as="geometry" />
        </mxCell>
        <mxCell id="iZyAnFixZvS7v7MJcJc4-289" value="" style="ellipse;whiteSpace=wrap;html=1;aspect=fixed;" vertex="1" parent="iZyAnFixZvS7v7MJcJc4-288">
          <mxGeometry x="10" width="40" height="40" as="geometry" />
        </mxCell>
        <mxCell id="iZyAnFixZvS7v7MJcJc4-290" value="počet shlédnutí reklamy přesáhl 5" style="text;html=1;align=center;verticalAlign=middle;whiteSpace=wrap;rounded=0;" vertex="1" parent="iZyAnFixZvS7v7MJcJc4-288">
          <mxGeometry x="-30" y="40" width="120" height="30" as="geometry" />
        </mxCell>
        <mxCell id="iZyAnFixZvS7v7MJcJc4-291" style="edgeStyle=orthogonalEdgeStyle;rounded=0;orthogonalLoop=1;jettySize=auto;html=1;" edge="1" parent="1" source="iZyAnFixZvS7v7MJcJc4-285" target="iZyAnFixZvS7v7MJcJc4-289">
          <mxGeometry relative="1" as="geometry" />
        </mxCell>
        <mxCell id="iZyAnFixZvS7v7MJcJc4-292" value="" style="group" vertex="1" connectable="0" parent="1">
          <mxGeometry x="710" y="1370" width="60" height="70" as="geometry" />
        </mxCell>
        <mxCell id="iZyAnFixZvS7v7MJcJc4-293" value="" style="ellipse;whiteSpace=wrap;html=1;aspect=fixed;" vertex="1" parent="iZyAnFixZvS7v7MJcJc4-292">
          <mxGeometry x="10" width="40" height="40" as="geometry" />
        </mxCell>
        <mxCell id="iZyAnFixZvS7v7MJcJc4-294" value="počet reklm" style="text;html=1;align=center;verticalAlign=middle;whiteSpace=wrap;rounded=0;" vertex="1" parent="iZyAnFixZvS7v7MJcJc4-292">
          <mxGeometry y="40" width="60" height="30" as="geometry" />
        </mxCell>
        <mxCell id="iZyAnFixZvS7v7MJcJc4-295" style="edgeStyle=orthogonalEdgeStyle;rounded=0;orthogonalLoop=1;jettySize=auto;html=1;" edge="1" parent="1" source="iZyAnFixZvS7v7MJcJc4-272" target="iZyAnFixZvS7v7MJcJc4-293">
          <mxGeometry relative="1" as="geometry">
            <Array as="points">
              <mxPoint x="680" y="1120" />
              <mxPoint x="680" y="1390" />
            </Array>
          </mxGeometry>
        </mxCell>
        <mxCell id="iZyAnFixZvS7v7MJcJc4-296" value="" style="group" vertex="1" connectable="0" parent="1">
          <mxGeometry x="970" y="1360" width="60" height="90" as="geometry" />
        </mxCell>
        <mxCell id="iZyAnFixZvS7v7MJcJc4-297" value="" style="rounded=0;whiteSpace=wrap;html=1;fillColor=#000000;" vertex="1" parent="iZyAnFixZvS7v7MJcJc4-296">
          <mxGeometry x="25" width="10" height="60" as="geometry" />
        </mxCell>
        <mxCell id="iZyAnFixZvS7v7MJcJc4-298" style="edgeStyle=orthogonalEdgeStyle;rounded=0;orthogonalLoop=1;jettySize=auto;html=1;" edge="1" parent="1" source="iZyAnFixZvS7v7MJcJc4-293" target="iZyAnFixZvS7v7MJcJc4-297">
          <mxGeometry relative="1" as="geometry" />
        </mxCell>
        <mxCell id="iZyAnFixZvS7v7MJcJc4-299" value="11" style="text;html=1;align=center;verticalAlign=middle;resizable=0;points=[];autosize=1;strokeColor=none;fillColor=none;" vertex="1" parent="1">
          <mxGeometry x="760" y="1360" width="40" height="30" as="geometry" />
        </mxCell>
        <mxCell id="iZyAnFixZvS7v7MJcJc4-300" value="" style="group" vertex="1" connectable="0" parent="1">
          <mxGeometry x="1250" y="1370" width="90" height="70" as="geometry" />
        </mxCell>
        <mxCell id="iZyAnFixZvS7v7MJcJc4-301" value="" style="ellipse;whiteSpace=wrap;html=1;aspect=fixed;" vertex="1" parent="iZyAnFixZvS7v7MJcJc4-300">
          <mxGeometry x="10" width="40" height="40" as="geometry" />
        </mxCell>
        <mxCell id="iZyAnFixZvS7v7MJcJc4-302" value="počet shlédnutí reklamy přesáhl 10" style="text;html=1;align=center;verticalAlign=middle;whiteSpace=wrap;rounded=0;" vertex="1" parent="iZyAnFixZvS7v7MJcJc4-300">
          <mxGeometry x="-30" y="40" width="120" height="30" as="geometry" />
        </mxCell>
        <mxCell id="iZyAnFixZvS7v7MJcJc4-303" style="edgeStyle=orthogonalEdgeStyle;rounded=0;orthogonalLoop=1;jettySize=auto;html=1;" edge="1" parent="1" source="iZyAnFixZvS7v7MJcJc4-297" target="iZyAnFixZvS7v7MJcJc4-301">
          <mxGeometry relative="1" as="geometry" />
        </mxCell>
        <mxCell id="iZyAnFixZvS7v7MJcJc4-304" value="" style="group" vertex="1" connectable="0" parent="1">
          <mxGeometry x="970" y="1260" width="60" height="90" as="geometry" />
        </mxCell>
        <mxCell id="iZyAnFixZvS7v7MJcJc4-305" value="" style="rounded=0;whiteSpace=wrap;html=1;fillColor=#000000;" vertex="1" parent="iZyAnFixZvS7v7MJcJc4-304">
          <mxGeometry x="25" width="10" height="60" as="geometry" />
        </mxCell>
        <mxCell id="iZyAnFixZvS7v7MJcJc4-306" value="24/6 h" style="text;html=1;align=center;verticalAlign=middle;resizable=0;points=[];autosize=1;strokeColor=none;fillColor=none;" vertex="1" parent="iZyAnFixZvS7v7MJcJc4-304">
          <mxGeometry y="60" width="60" height="30" as="geometry" />
        </mxCell>
        <mxCell id="iZyAnFixZvS7v7MJcJc4-307" style="rounded=0;orthogonalLoop=1;jettySize=auto;html=1;" edge="1" parent="1" source="iZyAnFixZvS7v7MJcJc4-281" target="iZyAnFixZvS7v7MJcJc4-305">
          <mxGeometry relative="1" as="geometry" />
        </mxCell>
        <mxCell id="iZyAnFixZvS7v7MJcJc4-308" value="" style="group" vertex="1" connectable="0" parent="1">
          <mxGeometry x="970" y="1450" width="60" height="90" as="geometry" />
        </mxCell>
        <mxCell id="iZyAnFixZvS7v7MJcJc4-309" value="" style="rounded=0;whiteSpace=wrap;html=1;fillColor=#000000;" vertex="1" parent="iZyAnFixZvS7v7MJcJc4-308">
          <mxGeometry x="25" width="10" height="60" as="geometry" />
        </mxCell>
        <mxCell id="iZyAnFixZvS7v7MJcJc4-310" value="24/11 h" style="text;html=1;align=center;verticalAlign=middle;resizable=0;points=[];autosize=1;strokeColor=none;fillColor=none;" vertex="1" parent="iZyAnFixZvS7v7MJcJc4-308">
          <mxGeometry y="60" width="60" height="30" as="geometry" />
        </mxCell>
        <mxCell id="iZyAnFixZvS7v7MJcJc4-311" style="rounded=0;orthogonalLoop=1;jettySize=auto;html=1;" edge="1" parent="1" source="iZyAnFixZvS7v7MJcJc4-293" target="iZyAnFixZvS7v7MJcJc4-309">
          <mxGeometry relative="1" as="geometry" />
        </mxCell>
      </root>
    </mxGraphModel>
  </diagram>
</mxfile>
